PathFileType	4	(X/Y/Z)	c:/Users/goper/Files/vsCode/490R/osim_files/C15/C15_Static01.trc
DataRate	CameraRate	NumFrames	NumMarkers	Units                	OrigDataRate	OrigDataStartFrame	OrigNumFrames
250.00	250.00	8	36	mm	250.0	1	3717
                Frame#	Time	LPSIS			LASIS			LTH1			LTH2			LTH3			LTH4			LLFE			LMFE			LSH1			LSH2			LSH3			LSH4			LLMAL			LMMAL			LCAL			LMTP5			LTOE			LMTP1			RPSIS			RASIS			RTH1			RTH2			RTH3			RTH4			RLFE			RMFE			RSH1			RSH2			RSH3			RSH4			RLMAL			RMMAL			RCAL			RMTP1			RTOE			RMTP5		
		X1	Y1	Z1	X2	Y2	Z2	X3	Y3	Z3	X4	Y4	Z4	X5	Y5	Z5	X6	Y6	Z6	X7	Y7	Z7	X8	Y8	Z8	X9	Y9	Z9	X10	Y10	Z10	X11	Y11	Z11	X12	Y12	Z12	X13	Y13	Z13	X14	Y14	Z14	X15	Y15	Z15	X16	Y16	Z16	X17	Y17	Z17	X18	Y18	Z18	X19	Y19	Z19	X20	Y20	Z20	X21	Y21	Z21	X22	Y22	Z22	X23	Y23	Z23	X24	Y24	Z24	X25	Y25	Z25	X26	Y26	Z26	X27	Y27	Z27	X28	Y28	Z28	X29	Y29	Z29	X30	Y30	Z30	X31	Y31	Z31	X32	Y32	Z32	X33	Y33	Z33	X34	Y34	Z34	X35	Y35	Z35	X36	Y36	Z36

1	0.00000	-408.86908	1023.17883	443.44980	-249.38943	1006.01825	359.66626	-313.01691	626.56134	278.67899	-317.86792	580.42554	289.27802	-261.56284	629.54871	288.16406	-265.31161	584.07001	293.97461	-323.29559	501.39642	308.15741	-302.66208	477.20593	424.58194	-394.50153	395.46899	299.39731	-397.13623	352.10913	290.19156	-333.53122	390.03146	286.60760	-344.38736	346.72446	279.19421	-373.71069	87.86610	322.89249	-342.23453	103.80685	409.27673	-426.24139	57.12619	376.18814	-259.79919	36.54386	276.31763	-192.98604	58.16451	328.26147	-218.19661	38.83577	389.00888	-393.61121	1023.50348	561.24744	-231.45503	1007.92737	609.67871	-307.16855	646.68042	684.74487	-306.10742	600.31378	679.45746	-246.78732	642.22473	678.46326	-254.73329	594.98462	678.25763	-297.84030	498.51645	658.26202	-306.85672	473.31833	540.90643	-389.44666	398.45456	675.73987	-391.28848	356.41458	683.80548	-328.79086	388.33517	683.84680	-340.29425	348.29013	691.03656	-378.40729	86.33656	645.32617	-338.91693	101.76084	561.25140	-432.91507	57.36592	590.75543	-226.33374	38.10281	586.54810	-201.67871	55.73955	645.08411	-272.07144	30.91741	698.61285
2	0.00400	-408.90118	1023.15692	443.41620	-249.19756	1006.15662	359.62869	-313.04565	626.53546	278.66534	-317.84247	580.46216	289.20044	-261.59680	629.54736	288.14865	-265.36285	584.04059	293.94626	-323.29559	501.37668	308.14783	-302.69522	477.18484	424.57266	-394.51630	395.45682	299.36545	-397.11850	352.09558	290.18561	-333.55017	390.02487	286.61786	-344.38730	346.71057	279.16934	-373.72348	87.83488	322.89801	-342.21069	103.79128	409.25745	-426.22736	57.11414	376.17682	-259.78574	36.52444	276.32504	-192.96899	58.15071	328.25546	-218.20012	38.82017	389.02927	-393.67383	1023.50262	561.23987	-231.46333	1007.90906	609.67413	-307.17322	646.65674	684.73907	-306.12744	600.28540	679.51514	-246.82257	642.19495	678.45807	-254.77292	594.97510	678.24353	-297.84277	498.50415	658.28717	-306.91443	473.29626	540.89465	-389.45328	398.42929	675.74481	-391.32697	356.37323	683.79572	-328.78406	388.31613	683.83466	-340.28687	348.28015	691.02747	-378.35306	86.31750	645.32965	-338.93210	101.72591	561.25531	-432.40048	57.13722	590.71112	-226.30321	38.10128	586.54486	-201.64629	55.74012	645.07660	-272.05817	30.88397	698.61005
3	0.00800	-408.93030	1023.12476	443.40787	-249.25040	1006.15338	359.63208	-313.06393	626.53357	278.64685	-317.91141	580.42603	289.24820	-261.59344	629.55548	288.14890	-265.37048	584.03839	293.94925	-323.31308	501.36703	308.14050	-302.70282	477.16812	424.56641	-394.52771	395.48093	299.35165	-397.14062	352.06946	290.17368	-333.55115	390.02917	286.60797	-344.41104	346.70474	279.17181	-373.70834	87.82191	322.88745	-342.20660	103.77890	409.25543	-426.18964	57.03482	376.20120	-259.79279	36.51894	276.31824	-192.94727	58.16808	328.24640	-218.18126	38.80096	389.00650	-393.68896	1023.47931	561.23193	-231.49338	1007.91309	609.66888	-307.20618	646.65045	684.72662	-306.15390	600.26312	679.49634	-246.85825	642.19531	678.46130	-254.80081	594.96820	678.23151	-297.83063	498.50052	658.29633	-306.92325	473.28760	540.88745	-389.47131	398.42715	675.72668	-391.32300	356.36523	683.78259	-328.75864	388.32690	683.83752	-340.30408	348.27847	691.03998	-378.36633	86.30012	645.29712	-338.94742	101.71429	561.24854	-432.37320	57.11821	590.69342	-226.31126	38.09479	586.55396	-201.63635	55.74659	645.06757	-272.03952	30.85877	698.58295
4	0.01200	-409.00180	1023.11841	443.38974	-249.50735	1006.01813	359.64111	-313.09210	626.52075	278.64258	-317.87595	580.47473	289.20444	-261.60922	629.54956	288.14267	-265.41000	584.02618	293.93777	-323.33386	501.35492	308.13092	-302.70825	477.17227	424.56183	-394.54471	395.44925	299.37424	-397.16101	352.07654	290.17001	-333.58038	389.99426	286.60880	-344.40488	346.69870	279.16556	-373.71075	87.81908	322.89471	-342.22531	103.76839	409.26590	-426.23422	57.03581	376.17545	-259.77542	36.51661	276.30893	-192.94339	58.15826	328.26181	-218.17143	38.81231	389.01831	-393.78525	1023.47266	561.21619	-231.53333	1007.90759	609.66980	-307.24600	646.64539	684.72729	-306.19196	600.25122	679.43353	-246.88066	642.19684	678.44531	-254.84633	594.97290	678.24054	-297.89401	498.46112	658.26135	-306.93085	473.28265	540.86957	-389.48401	398.41183	675.73181	-391.35220	356.35153	683.77777	-328.81421	388.30582	683.85718	-340.32260	348.25623	691.02856	-378.36780	86.27343	645.29877	-338.94427	101.71864	561.25348	-432.36374	57.09909	590.67822	-226.28029	38.11947	586.53516	-201.66675	55.72929	645.06342	-272.04855	30.84233	698.58588
5	0.01600	-408.98172	1023.09076	443.37070	-249.31912	1006.15894	359.60883	-313.10693	626.51996	278.64462	-317.89047	580.47656	289.19070	-261.63046	629.57062	288.14771	-265.43744	584.04443	293.93958	-323.36346	501.36584	308.13110	-302.71121	477.16641	424.56226	-394.61661	395.42505	299.39600	-397.18588	352.07159	290.18268	-333.57288	390.01001	286.60480	-344.41714	346.70511	279.16998	-373.71658	87.82664	322.89639	-342.24673	103.77212	409.26804	-426.27341	57.03993	376.15842	-259.78714	36.52196	276.31369	-192.94276	58.18504	328.23096	-218.18340	38.83374	389.00299	-393.84045	1023.46942	561.20782	-231.59966	1007.92224	609.67316	-307.30408	646.62866	684.72223	-306.27286	600.26459	679.47852	-246.94473	642.20825	678.45935	-254.89040	594.97595	678.24567	-297.98642	498.49976	658.25189	-306.97144	473.28488	540.86182	-389.54843	398.41653	675.71246	-391.41592	356.38159	683.75946	-328.86880	388.32156	683.83807	-340.37958	348.25409	691.04547	-378.39508	86.26412	645.28693	-338.93628	101.73029	561.25476	-432.92532	57.32190	590.74084	-226.30507	38.14573	586.53583	-201.69878	55.74200	645.07281	-272.09225	30.84882	698.58411
6	0.02000	-409.04477	1023.08765	443.35287	-249.55907	1006.02881	359.61218	-313.12808	626.51733	278.62778	-317.94528	580.44562	289.21576	-261.63916	629.56708	288.13638	-265.48944	584.03381	293.93964	-323.38400	501.35242	308.12845	-302.73993	477.18491	424.55496	-394.65607	395.39224	299.41049	-397.18710	352.06174	290.16632	-333.57785	390.02066	286.60104	-344.44830	346.68887	279.16351	-373.71646	87.82912	322.90442	-342.25589	103.77364	409.24255	-426.19565	56.95813	376.20395	-259.78610	36.51899	276.32004	-192.94048	58.21965	328.23212	-218.17741	38.84820	389.00723	-393.85355	1023.45062	561.18671	-231.63005	1007.93683	609.65155	-307.37128	646.64404	684.69403	-306.37704	600.27777	679.46332	-246.97517	642.22681	678.45160	-254.93907	594.99658	678.23035	-297.98776	498.52249	658.26215	-306.57645	473.67691	540.67896	-389.58972	398.44608	675.69067	-391.45334	356.40585	683.73145	-328.85141	388.31989	683.80865	-340.37186	348.27475	691.01068	-378.43307	86.28909	645.27307	-338.94666	101.72292	561.26086	-432.94272	57.36087	590.71039	-226.26027	38.20121	586.51166	-201.65663	55.78710	645.06976	-272.09894	30.85209	698.58435
7	0.02400	-409.04590	1023.07477	443.34027	-249.40726	1006.18860	359.60074	-313.13684	626.53143	278.64545	-317.94153	580.50812	289.18979	-261.66904	629.58752	288.13007	-265.46802	584.06293	293.93469	-323.37906	501.37387	308.12827	-302.71283	477.18695	424.52472	-394.65466	395.42093	299.41910	-397.19998	352.07996	290.17169	-333.56921	390.00806	286.58737	-344.42188	346.71432	279.16232	-373.69644	87.82452	322.89505	-342.25934	103.80147	409.23019	-426.19360	56.98729	376.20557	-259.76337	36.53712	276.32315	-192.92006	58.27756	328.20023	-218.13988	38.90706	388.97571	-393.87158	1023.43988	561.16962	-231.65970	1007.96088	609.62488	-307.39511	646.67767	684.69110	-306.42700	600.33356	679.45239	-246.98987	642.25128	678.41840	-254.94969	595.02838	678.20868	-297.96927	498.58429	658.20392	-306.58508	473.69550	540.67834	-389.64044	398.47104	675.66516	-391.49857	356.45700	683.71497	-328.84140	388.39798	683.79272	-340.39294	348.28610	690.99805	-378.41098	86.33158	645.23938	-338.93970	101.73710	561.25555	-432.99524	57.40882	590.68762	-226.22353	38.24531	586.48700	-201.62985	55.82241	645.04553	-272.08633	30.87870	698.55151
8	0.02800	-409.09137	1023.06848	443.32187	-249.64362	1006.03845	359.60995	-313.15936	626.51422	278.64294	-317.91986	580.49969	289.18130	-261.68170	629.55127	288.13434	-265.47589	584.03821	293.93365	-323.38559	501.36862	308.13269	-302.73669	477.18539	424.52646	-394.61664	395.42404	299.40179	-397.19211	352.07352	290.17273	-333.59592	390.01727	286.58356	-344.42969	346.70679	279.16394	-373.69589	87.82669	322.89682	-342.21188	103.81853	409.22183	-426.17108	56.98539	376.22507	-259.75394	36.53122	276.31836	-192.90311	58.29847	328.18771	-218.10844	38.91442	388.96616	-393.98843	1023.45581	561.15704	-231.68262	1008.00232	609.62555	-307.43420	646.67914	684.66559	-306.45990	600.33673	679.41846	-246.67212	642.29486	678.32672	-254.95604	595.04004	678.20386	-297.97638	498.60004	658.20673	-306.60809	473.67548	540.68689	-389.65140	398.47302	675.64148	-391.50812	356.44778	683.69232	-328.82928	388.41382	683.76562	-340.38779	348.28738	690.97858	-378.38852	86.33573	645.23138	-338.92081	101.74248	561.26312	-432.94882	57.42426	590.67987	-226.21667	38.27812	586.46954	-201.58853	55.86305	645.01080	-272.06113	30.88663	698.54950
